<svg width="1363" height="163" viewBox="0 0 1363 163" fill="none" xmlns="http://www.w3.org/2000/svg">
<path d="M0 15C0 6.71573 6.71573 0 15 0H37V163H15C6.71573 163 0 156.284 0 148V15Z" fill="#1789C9"/>
<rect width="1097" height="163" transform="translate(37)" fill="#F0F0F0"/>
<path d="M101.906 53.9219L94.3945 51.2383V48.0859L104.602 52.375V54.6367L101.906 53.9219ZM94.3945 56.1719L101.918 53.4297L104.602 52.7852V55.0352L94.3945 59.3242V56.1719ZM126.785 43.9375V61H123.27L116.414 49.5625V61H112.898V43.9375H116.414L123.281 55.3867V43.9375H126.785ZM133.582 43.9375V61H130.078V43.9375H133.582ZM150.762 43.9375V61H147.246L140.391 49.5625V61H136.875V43.9375H140.391L147.258 55.3867V43.9375H150.762ZM160.723 55.7617V43.9375H164.227V55.7617C164.227 56.9023 163.977 57.8828 163.477 58.7031C162.977 59.5156 162.293 60.1406 161.426 60.5781C160.566 61.0156 159.598 61.2344 158.52 61.2344C157.402 61.2344 156.414 61.0469 155.555 60.6719C154.695 60.2969 154.02 59.7227 153.527 58.9492C153.035 58.168 152.789 57.1797 152.789 55.9844H156.316C156.316 56.6094 156.402 57.1055 156.574 57.4727C156.754 57.8398 157.008 58.1016 157.336 58.2578C157.664 58.4141 158.059 58.4922 158.52 58.4922C158.965 58.4922 159.352 58.3867 159.68 58.1758C160.008 57.9648 160.262 57.6562 160.441 57.25C160.629 56.8438 160.723 56.3477 160.723 55.7617ZM173.906 46.8555L169.266 61H165.527L171.867 43.9375H174.246L173.906 46.8555ZM177.762 61L173.109 46.8555L172.734 43.9375H175.137L181.512 61H177.762ZM177.551 54.6484V57.4023H168.539V54.6484H177.551ZM192.773 55.3398H196.277C196.207 56.4883 195.891 57.5078 195.328 58.3984C194.773 59.2891 193.996 59.9844 192.996 60.4844C192.004 60.9844 190.809 61.2344 189.41 61.2344C188.316 61.2344 187.336 61.0469 186.469 60.6719C185.602 60.2891 184.859 59.7422 184.242 59.0312C183.633 58.3203 183.168 57.4609 182.848 56.4531C182.527 55.4453 182.367 54.3164 182.367 53.0664V51.8828C182.367 50.6328 182.531 49.5039 182.859 48.4961C183.195 47.4805 183.672 46.6172 184.289 45.9062C184.914 45.1953 185.66 44.6484 186.527 44.2656C187.395 43.8828 188.363 43.6914 189.434 43.6914C190.855 43.6914 192.055 43.9492 193.031 44.4648C194.016 44.9805 194.777 45.6914 195.316 46.5977C195.863 47.5039 196.191 48.5352 196.301 49.6914H192.785C192.746 49.0039 192.609 48.4219 192.375 47.9453C192.141 47.4609 191.785 47.0977 191.309 46.8555C190.84 46.6055 190.215 46.4805 189.434 46.4805C188.848 46.4805 188.336 46.5898 187.898 46.8086C187.461 47.0273 187.094 47.3594 186.797 47.8047C186.5 48.25 186.277 48.8125 186.129 49.4922C185.988 50.1641 185.918 50.9531 185.918 51.8594V53.0664C185.918 53.9492 185.984 54.7266 186.117 55.3984C186.25 56.0625 186.453 56.625 186.727 57.0859C187.008 57.5391 187.367 57.8828 187.805 58.1172C188.25 58.3438 188.785 58.457 189.41 58.457C190.145 58.457 190.75 58.3398 191.227 58.1055C191.703 57.8711 192.066 57.5234 192.316 57.0625C192.574 56.6016 192.727 56.0273 192.773 55.3398ZM212.602 52.0703V52.8789C212.602 54.1758 212.426 55.3398 212.074 56.3711C211.723 57.4023 211.227 58.2812 210.586 59.0078C209.945 59.7266 209.18 60.2773 208.289 60.6602C207.406 61.043 206.426 61.2344 205.348 61.2344C204.277 61.2344 203.297 61.043 202.406 60.6602C201.523 60.2773 200.758 59.7266 200.109 59.0078C199.461 58.2812 198.957 57.4023 198.598 56.3711C198.246 55.3398 198.07 54.1758 198.07 52.8789V52.0703C198.07 50.7656 198.246 49.6016 198.598 48.5781C198.949 47.5469 199.445 46.668 200.086 45.9414C200.734 45.2148 201.5 44.6602 202.383 44.2773C203.273 43.8945 204.254 43.7031 205.324 43.7031C206.402 43.7031 207.383 43.8945 208.266 44.2773C209.156 44.6602 209.922 45.2148 210.562 45.9414C211.211 46.668 211.711 47.5469 212.062 48.5781C212.422 49.6016 212.602 50.7656 212.602 52.0703ZM209.051 52.8789V52.0469C209.051 51.1406 208.969 50.3438 208.805 49.6562C208.641 48.9688 208.398 48.3906 208.078 47.9219C207.758 47.4531 207.367 47.1016 206.906 46.8672C206.445 46.625 205.918 46.5039 205.324 46.5039C204.73 46.5039 204.203 46.625 203.742 46.8672C203.289 47.1016 202.902 47.4531 202.582 47.9219C202.27 48.3906 202.031 48.9688 201.867 49.6562C201.703 50.3438 201.621 51.1406 201.621 52.0469V52.8789C201.621 53.7773 201.703 54.5742 201.867 55.2695C202.031 55.957 202.273 56.5391 202.594 57.0156C202.914 57.4844 203.305 57.8398 203.766 58.082C204.227 58.3242 204.754 58.4453 205.348 58.4453C205.941 58.4453 206.469 58.3242 206.93 58.082C207.391 57.8398 207.777 57.4844 208.09 57.0156C208.402 56.5391 208.641 55.957 208.805 55.2695C208.969 54.5742 209.051 53.7773 209.051 52.8789Z" fill="#888888"/>
<path d="M114.117 84.875H122.344V107.164C122.344 109.82 121.789 112.07 120.68 113.914C119.57 115.742 118.016 117.125 116.016 118.062C114.016 119 111.664 119.469 108.961 119.469C106.289 119.469 103.938 119 101.906 118.062C99.8906 117.125 98.3125 115.742 97.1719 113.914C96.0469 112.07 95.4844 109.82 95.4844 107.164V84.875H103.734V107.164C103.734 108.57 103.938 109.719 104.344 110.609C104.75 111.484 105.344 112.125 106.125 112.531C106.906 112.938 107.852 113.141 108.961 113.141C110.086 113.141 111.031 112.938 111.797 112.531C112.562 112.125 113.141 111.484 113.531 110.609C113.922 109.719 114.117 108.57 114.117 107.164V84.875ZM136.266 84.875V119H128.062V84.875H136.266ZM172.523 84.875H180.75V107.164C180.75 109.82 180.195 112.07 179.086 113.914C177.977 115.742 176.422 117.125 174.422 118.062C172.422 119 170.07 119.469 167.367 119.469C164.695 119.469 162.344 119 160.312 118.062C158.297 117.125 156.719 115.742 155.578 113.914C154.453 112.07 153.891 109.82 153.891 107.164V84.875H162.141V107.164C162.141 108.57 162.344 109.719 162.75 110.609C163.156 111.484 163.75 112.125 164.531 112.531C165.312 112.938 166.258 113.141 167.367 113.141C168.492 113.141 169.438 112.938 170.203 112.531C170.969 112.125 171.547 111.484 171.938 110.609C172.328 109.719 172.523 108.57 172.523 107.164V84.875ZM193.078 84.875L198.656 96.2188L204.234 84.875H213.609L204.094 101.797L213.867 119H204.398L198.656 107.445L192.914 119H183.422L193.219 101.797L183.68 84.875H193.078Z" fill="black"/>
<path d="M1134 0H1348C1356.28 0 1363 6.71573 1363 15V148C1363 156.284 1356.28 163 1348 163H1134V0Z" fill="#1789C9"/>
<path d="M1248.5 111.917C1244.51 111.917 1240.55 111.13 1236.86 109.601C1233.17 108.073 1229.82 105.832 1226.99 103.008C1221.29 97.3036 1218.08 89.567 1218.08 81.5C1218.08 73.433 1221.29 65.6964 1226.99 59.9922C1232.7 54.2879 1240.43 51.0833 1248.5 51.0833C1265.23 51.0833 1278.92 63.25 1278.92 78.4583C1278.92 83.2985 1276.99 87.9405 1273.57 91.363C1270.15 94.7856 1265.51 96.7083 1260.67 96.7083H1255.19C1254.28 96.7083 1253.67 97.3167 1253.67 98.2292C1253.67 98.5333 1253.97 98.8375 1253.97 99.1417C1255.19 100.662 1255.8 102.487 1255.8 104.312C1256.1 108.571 1252.76 111.917 1248.5 111.917ZM1248.5 57.1667C1242.05 57.1667 1235.86 59.7303 1231.29 64.2937C1226.73 68.8571 1224.17 75.0464 1224.17 81.5C1224.17 87.9536 1226.73 94.1429 1231.29 98.7063C1235.86 103.27 1242.05 105.833 1248.5 105.833C1249.41 105.833 1250.02 105.225 1250.02 104.312C1250.02 103.704 1249.72 103.4 1249.72 103.096C1248.5 101.575 1247.89 100.054 1247.89 98.2292C1247.89 93.9708 1251.24 90.625 1255.5 90.625H1260.67C1263.89 90.625 1266.99 89.3432 1269.27 87.0615C1271.55 84.7798 1272.83 81.6851 1272.83 78.4583C1272.83 66.5958 1261.88 57.1667 1248.5 57.1667ZM1231.77 75.4167C1234.2 75.4167 1236.33 77.5458 1236.33 79.9792C1236.33 82.4125 1234.2 84.5417 1231.77 84.5417C1229.34 84.5417 1227.21 82.4125 1227.21 79.9792C1227.21 77.5458 1229.34 75.4167 1231.77 75.4167ZM1240.9 63.25C1243.33 63.25 1245.46 65.3792 1245.46 67.8125C1245.46 70.2458 1243.33 72.375 1240.9 72.375C1238.46 72.375 1236.33 70.2458 1236.33 67.8125C1236.33 65.3792 1238.46 63.25 1240.9 63.25ZM1256.1 63.25C1258.54 63.25 1260.67 65.3792 1260.67 67.8125C1260.67 70.2458 1258.54 72.375 1256.1 72.375C1253.67 72.375 1251.54 70.2458 1251.54 67.8125C1251.54 65.3792 1253.67 63.25 1256.1 63.25ZM1265.23 75.4167C1267.66 75.4167 1269.79 77.5458 1269.79 79.9792C1269.79 82.4125 1267.66 84.5417 1265.23 84.5417C1262.8 84.5417 1260.67 82.4125 1260.67 79.9792C1260.67 77.5458 1262.8 75.4167 1265.23 75.4167Z" fill="white"/>
</svg>
